<svg xmlns="http://www.w3.org/2000/svg" viewBox="0 0 24 30" x="0px" y="0px"><path d="M7.42,14.08H8.77v6.76a1.42,1.42,0,0,0,1.42,1.41h2.68a1.42,1.42,0,0,0,1.43-1.41V14.08h1.35a1.64,1.64,0,0,0,1.34-1l.92-1.81a.49.49,0,0,0,0-.1A1.4,1.4,0,0,0,17.7,10a1.42,1.42,0,0,0-1.12-.54H14.3V6.82h2.27A1.42,1.42,0,0,0,18,5.42V3.16a1.42,1.42,0,0,0-1.42-1.41H13.8c-3.38,0-5,2.09-5,6.39V9.45H7.42A1.42,1.42,0,0,0,6,10.86v1.81A1.42,1.42,0,0,0,7.42,14.08ZM7,10.86a.42.42,0,0,1,.42-.41H9.27a.5.5,0,0,0,.5-.5V8.14c0-3.78,1.2-5.39,4-5.39h2.77a.42.42,0,0,1,.42.41V5.42a.42.42,0,0,1-.42.41H13.8a.5.5,0,0,0-.5.5V10a.5.5,0,0,0,.5.5h2.77a.43.43,0,0,1,.34.16.39.39,0,0,1,.08.3l-.89,1.74c-.16.29-.37.43-.46.43H13.8a.5.5,0,0,0-.5.5v7.26a.42.42,0,0,1-.43.41H10.2a.42.42,0,0,1-.42-.41V13.58a.5.5,0,0,0-.5-.5H7.42A.42.42,0,0,1,7,12.67Z"/></svg>