<svg xmlns="http://www.w3.org/2000/svg" version="1.1" x="0px" y="0px" viewBox="0 0 100 125"><g transform="translate(0,-952.36218)"><path d="M 77.84375 17 A 2.0002 2.0002 0 0 0 76.25 18 L 48.25 67 A 2.0002 2.0002 0 0 0 48 68.125 L 49 81.125 A 2.0002 2.0002 0 0 0 51.71875 82.84375 L 64.71875 77.84375 A 2.0002 2.0002 0 0 0 65.75 76.96875 L 93.75 27.96875 A 2.0002 2.0002 0 0 0 93 25.25 L 79 17.25 A 2.0002 2.0002 0 0 0 77.84375 17 z M 78.75 21.71875 L 89.25 27.71875 L 85.03125 35.125 L 74.53125 29.125 L 78.75 21.71875 z M 72.53125 32.59375 L 83.03125 38.59375 L 62.59375 74.375 L 52.78125 78.15625 L 52.03125 68.4375 L 72.53125 32.59375 z M 7.8125 79 A 2.0021961 2.0021961 0 1 0 8 83 L 31 83 A 2.0002 2.0002 0 1 0 31 79 L 8 79 A 2.0002 2.0002 0 0 0 7.8125 79 z M 38 79 C 36.895431 79 36 79.895431 36 81 C 36 82.104569 36.895431 83 38 83 C 39.104569 83 40 82.104569 40 81 C 40 79.895431 39.104569 79 38 79 z " transform="translate(0,952.36218)"/></g></svg>