<svg xmlns="http://www.w3.org/2000/svg" fillRule="evenodd" version="1.1" viewBox="0 0 32 40" x="0px" y="0px"><rect width="32" height="32" fill="none"/><g clipRule="nonzero" fillRule="nonzero" shapeRendering="auto"><path d="m24.447 4.9902a1.0001 1.0001 0 0 0 -0.625 1.7461c2.6868 2.4733 4.1777 5.8004 4.1777 9.2637s-1.4909 6.7904-4.1777 9.2637a1.0008 1.0008 0 1 0 1.3555 1.4727c3.0752-2.8307 4.8223-6.6976 4.8223-10.736s-1.7471-7.9056-4.8223-10.736a1.0001 1.0001 0 0 0 -0.73047 -0.27344z"/><path d="m22 9.9902a1.0001 1.0001 0 0 0 -0.71484 1.7109c1.0955 1.1169 1.7148 2.6363 1.7148 4.2227 0 1.5875-0.61932 3.1058-1.7148 4.2227a1.0006 1.0006 0 1 0 1.4297 1.4004c1.4665-1.4951 2.2852-3.5165 2.2852-5.623 0-2.1057-0.81868-4.1299-2.2852-5.625a1.0001 1.0001 0 0 0 -0.71484 -0.30859z"/><path d="m14.852 5.0547c-0.51107 0.10235-0.99296 0.35722-1.3691 0.74609-1.479 1.528-3.2003 3.305-4.2441 4.3828-0.42638 0.44048-0.98071 0.68002-1.5566 0.6875-1.1796 0.005608-2.0834 0.025261-2.8379 0.12891-0.75651 0.10393-1.4255 0.30051-1.9434 0.78906-0.5179 0.48856-0.7307 1.1603-0.81836 1.834-0.087658 0.67372-0.082031 1.4252-0.082031 2.377 0 0.9515-0.00564 1.7034 0.082031 2.377 0.087668 0.67356 0.3005 1.3456 0.81836 1.834 0.51786 0.48841 1.1869 0.68495 1.9434 0.78906 0.75435 0.10383 1.6583 0.1228 2.8379 0.12891 0.57462 0.0075 1.1303 0.24702 1.5566 0.6875 1.0444 1.0774 2.7651 2.8548 4.2441 4.3828 0.75235 0.77774 1.9246 1.017 2.9141 0.57812a1.0001 1.0001 0 0 0 2e-3 0c0.9897-0.44061 1.6015-1.4395 1.6015-2.5176v-16.52c0-1.0781-0.61181-2.077-1.6016-2.5176a1.0001 1.0001 0 0 0 -2e-3 0c-0.4947-0.21944-1.0338-0.27032-1.5449-0.16797zm0.73438 1.9961c0.23156 0.10385 0.41406 0.36822 0.41406 0.68945v16.52c0 0.32124-0.1825 0.5856-0.41406 0.68945-0.2325 0.10312-0.47037 0.06163-0.66602-0.14062-1.479-1.528-3.2005-3.3062-4.2461-4.3848-0.78362-0.80952-1.8494-1.2804-2.9668-1.2949a1.0001 1.0001 0 0 0 -0.00781 0c-1.1631-0.005945-2.018-0.033692-2.582-0.11133s-0.77474-0.19663-0.84375-0.26172c-0.069014-0.065089-0.14993-0.18303-0.20898-0.63672-0.059051-0.45369-0.064453-1.1676-0.064453-2.1191 0-0.95175 0.00539-1.6652 0.064453-2.1191 0.059061-0.45393 0.14001-0.57165 0.20898-0.63672 0.068977-0.06507 0.2798-0.1862 0.84375-0.26367 0.56396-0.07748 1.4189-0.10392 2.582-0.10938a1.0001 1.0001 0 0 0 0.00781 0c1.1181-0.01452 2.1851-0.4854 2.9687-1.2949 1.0442-1.0782 2.7651-2.8568 4.2441-4.3848 0.19565-0.20225 0.43351-0.24375 0.66602-0.14062z" /></g></svg>