<svg xmlns="http://www.w3.org/2000/svg" version="1.1" x="0px" y="0px" viewBox="0 0 100 125"><g transform="translate(0,-952.36218)"><path d="M 86.75 10.96875 A 2.0002 2.0002 0 0 0 85.59375 11.5625 L 75.8125 21.34375 L 68.03125 13.5625 C 66.866468 12.39772 65.329409 11.7821 63.78125 11.78125 C 62.233222 11.78039 60.709716 12.40844 59.5625 13.5625 L 45.59375 27.59375 A 2.0002 2.0002 0 0 0 45.59375 30.40625 L 69.625 54.4375 A 2.0002 2.0002 0 0 0 72.4375 54.4375 L 86.40625 40.40625 C 88.732007 38.0805 88.732049 34.26331 86.40625 31.9375 L 78.625 24.1875 L 88.40625 14.40625 A 2.0002 2.0002 0 0 0 86.75 10.96875 z M 63.78125 15.78125 C 64.279231 15.78152 64.816612 15.97286 65.21875 16.375 L 83.59375 34.75 C 84.401903 35.55816 84.401859 36.78564 83.59375 37.59375 L 71.03125 50.21875 L 49.8125 29 L 62.375 16.375 C 62.790106 15.95742 63.28314 15.78097 63.78125 15.78125 z M 41.75 40.96875 A 2.0002 2.0002 0 0 0 40.59375 41.5625 L 33.5 48.65625 L 30.375 45.53125 A 2.0002 2.0002 0 0 0 28.9375 44.9375 A 2.0002 2.0002 0 0 0 27.53125 45.53125 L 13.53125 59.53125 C 11.20522 61.85725 11.2053 65.70525 13.53125 68.03125 L 21.34375 75.8125 L 11.59375 85.5625 A 2.0002 2.0002 0 1 0 14.40625 88.40625 L 24.15625 78.65625 L 31.9375 86.40625 C 34.263476 88.73225 38.080274 88.73235 40.40625 86.40625 L 54.40625 72.40625 A 2.0002 2.0002 0 0 0 54.40625 69.5625 L 51.3125 66.5 L 58.40625 59.40625 A 2.0002 2.0002 0 0 0 56.75 55.96875 A 2.0002 2.0002 0 0 0 55.59375 56.5625 L 48.5 63.65625 L 36.3125 51.5 L 43.40625 44.40625 A 2.0002 2.0002 0 0 0 41.75 40.96875 z M 28.96875 49.78125 L 50.15625 71 L 37.59375 83.5625 C 36.785774 84.3705 35.557912 84.3704 34.75 83.5625 L 16.375 65.1875 C 15.567042 64.3795 15.567088 63.1829 16.375 62.375 L 28.96875 49.78125 z " transform="translate(0,952.36218)"/></g></svg>