<svg xmlns="http://www.w3.org/2000/svg" version="1.1" x="0px" y="0px" viewBox="0 0 100 100" ><g><path d="M62.984,31.699c-1.242-1.094-3.139-0.975-4.234,0.266c-1.096,1.244-0.977,3.139,0.266,4.234   C62.23,39.033,64,43.562,64,48.949c0,4.951-1.592,8.691-5.009,11.771c-1.23,1.109-1.329,3.008-0.22,4.238   c0.593,0.656,1.409,0.99,2.229,0.99c0.716,0,1.435-0.254,2.008-0.771C67.648,60.996,70,55.537,70,48.949   C70,41.814,67.508,35.689,62.984,31.699z"/><path d="M75.179,21.887c-1.139-1.201-3.037-1.254-4.241-0.115c-1.203,1.139-1.256,3.037-0.116,4.24   c5.932,6.268,9.198,14.363,9.198,22.797c0,8.67-3.318,16.855-9.342,23.049c-1.155,1.188-1.129,3.088,0.059,4.242   c0.583,0.568,1.338,0.85,2.092,0.85c0.781,0,1.562-0.303,2.15-0.908c7.12-7.318,11.041-16.99,11.041-27.232   C86.02,38.834,82.17,29.273,75.179,21.887z"/><path d="M48,21.949h-3c-0.754,0-1.48,0.285-2.035,0.797L30.827,33.949H21c-0.041,0-0.081,0.002-0.121,0.004   C17.711,34.08,13,36.316,13,41.949v13c0,3.217,2.131,8,8,8h9.9L43.062,73.24c0.541,0.457,1.229,0.709,1.938,0.709h3   c2.01,0,5-1.598,5-6v-40C53,24.969,51.283,21.949,48,21.949z"/></g></svg>